<?xml version="1.0" encoding="utf-8"?>
<!-- Generator: Adobe Illustrator 19.2.1, SVG Export Plug-In . SVG Version: 6.00 Build 0)  -->
<svg version="1.1" id="Layer_1" xmlns="http://www.w3.org/2000/svg" xmlns:xlink="http://www.w3.org/1999/xlink" x="0px" y="0px"
	 viewBox="0 0 60 60" style="enable-background:new 0 0 60 60;" xml:space="preserve">
<g>
	<path d="M43.9833984,55.5097656l-18.7954102-3.046875c-0.40625-0.0703125-0.7944336,0.2109375-0.8603516,0.6201172
		c-0.0664062,0.4091797,0.2114258,0.7939453,0.6201172,0.8603516l18.7954102,3.046875
		C43.7841797,56.9970703,43.8242188,57,43.8642578,57c0.3613281,0,0.6796875-0.2617188,0.7392578-0.6298828
		C44.6699219,55.9609375,44.3925781,55.5761719,43.9833984,55.5097656z"/>
	<path d="M53.4970703,27.84375c-0.1601562-0.1425781-0.3740234-0.2089844-0.5878906-0.1831055L41.75,29.0201416v-3.1002197
		l6.6464844-1.1572266c0.359375-0.0625,0.6210938-0.3740234,0.6210938-0.7387695V3.75
		c0-0.2480469-0.1220703-0.4799805-0.3271484-0.6196289c-0.2070312-0.1401367-0.46875-0.1699219-0.6962891-0.0786133
		l-22.1401367,8.6748047c-0.2875977,0.1123047-0.4765625,0.3896484-0.4765625,0.6982422V23.12854L6.831543,27.4189453
		c-0.340332,0.0786133-0.5810547,0.3813477-0.5810547,0.7304688v15.9150391c0,0.3945312,0.3061523,0.7226562,0.7006836,0.7480469
		l11.2983398,0.7476807v4.12146c0,0.3740234,0.2758789,0.6914062,0.6459961,0.7431641l34.0009766,4.7539062
		C52.9306641,55.1835938,52.9658203,55.1855469,53,55.1855469c0.1796875,0,0.3544922-0.0644531,0.4921875-0.1845703
		C53.65625,54.859375,53.75,54.6523438,53.75,54.4355469V28.4052734C53.75,28.1904297,53.6582031,27.9863281,53.4970703,27.84375z
		 M26.8774414,12.9365234l20.6401367-8.0869141v18.543457l-20.6401367,3.59375V12.9365234z M7.7504883,28.7456055
		l17.6269531-4.0779419v3.2112427c0,0.2211914,0.0976562,0.4316406,0.2670898,0.5742188
		c0.1362305,0.1142578,0.3076172,0.1757812,0.4829102,0.1757812c0.0429688,0,0.0859375-0.003418,0.128418-0.0112305
		L40.25,26.1810913v19.331604L7.7504883,43.3623047V28.7456055z M52.25,53.5732422l-32.5004883-4.5439453v-3.369812
		L40.9501953,47.0625C40.9667969,47.0634766,40.9833984,47.0644531,41,47.0644531
		c0.1894531,0,0.3730469-0.0722656,0.5126953-0.2021484C41.6640625,46.7197266,41.75,46.5214844,41.75,46.3144531v-15.782959
		l10.5-1.279541V53.5732422z"/>
	<path d="M36.4736328,36.5410156L9.9741211,37.4707031c-0.4038086,0.0146484-0.7236328,0.3457031-0.7236328,0.75v3.1191406
		c0,0.40625,0.3237305,0.7392578,0.7299805,0.75l26.4990234,0.7080078c0.0068359,0,0.0136719,0,0.0205078,0
		c0.1953125,0,0.3828125-0.0761719,0.5234375-0.2128906C37.1679688,42.4443359,37.25,42.25,37.25,42.0478516v-4.7568359
		c0-0.203125-0.0830078-0.3984375-0.2294922-0.5390625C36.8740234,36.6103516,36.6738281,36.5380859,36.4736328,36.5410156z
		 M24.8178711,38.4512939v2.5339355l-6.7822266-0.1812134v-2.114563L24.8178711,38.4512939z M10.7504883,38.9453125
		l5.7851562-0.203186v2.0218506l-5.7851562-0.1546021V38.9453125z M35.75,41.2773438l-9.4321289-0.2520142v-2.626709
		L35.75,38.0673828V41.2773438z"/>
	<path d="M38.7685547,15.9375l-4.3134766-1.4238281c-0.2294922-0.0756836-0.4794922-0.0361328-0.6748047,0.1044922
		c-0.1953125,0.1411133-0.3105469,0.3671875-0.3105469,0.6079102v5.847168c0,0.3051758,0.1845703,0.5795898,0.4677734,0.6948242
		c0.0908203,0.0371094,0.1865234,0.0551758,0.2822266,0.0551758c0.1982422,0,0.3925781-0.0786133,0.5371094-0.2265625
		l4.3134766-4.4233398c0.1806641-0.1850586,0.2529297-0.4501953,0.1914062-0.7011719
		C39.2001953,16.2207031,39.0136719,16.0185547,38.7685547,15.9375z M34.9697266,19.2299805v-2.9663086l2.1884766,0.722168
		L34.9697266,19.2299805z"/>
</g>
</svg>
