<?xml version="1.0" encoding="utf-8"?>
<!-- Generator: Adobe Illustrator 19.2.1, SVG Export Plug-In . SVG Version: 6.00 Build 0)  -->
<svg version="1.1" id="Layer_1" xmlns="http://www.w3.org/2000/svg" xmlns:xlink="http://www.w3.org/1999/xlink" x="0px" y="0px"
	 viewBox="0 0 60 60" style="enable-background:new 0 0 60 60;" xml:space="preserve">
<g>
	<g>
		<path d="M26.909668,48.6210938v5.65625h-0.9375v-2.453125h-2.3046875v2.453125h-0.9375v-5.65625h0.9375v2.3671875h2.3046875
			v-2.3671875H26.909668z"/>
		<path d="M31.9013672,49.3320312c0.4375,0.4746094,0.65625,1.1777344,0.65625,2.109375
			c0,0.9375-0.2197266,1.6445312-0.6601562,2.1210938s-1.0791016,0.7148438-1.9174805,0.7148438H28.222168v-5.65625h1.765625
			C30.8261719,48.6210938,31.4638672,48.8583984,31.9013672,49.3320312z M31.1826172,52.9375
			c0.2705078-0.3359375,0.40625-0.8339844,0.40625-1.4960938c0-1.3222656-0.5419922-1.984375-1.6245117-1.984375H29.159668v3.984375
			h0.8125C30.5083008,53.4414062,30.9121094,53.2734375,31.1826172,52.9375z"/>
		<path d="M35.3779297,52.2539062h-0.8125v2.0234375h-0.9375v-5.65625h0.9375h1.0390625
			c0.5830078,0,1.0351562,0.1591797,1.3554688,0.4765625c0.3203125,0.3183594,0.4804688,0.7636719,0.4804688,1.3359375
			c0,0.4375-0.09375,0.8027344-0.28125,1.09375c-0.1875,0.2919922-0.4580078,0.4980469-0.8125,0.6171875l1.421875,2.1328125h-1.125
			L35.3779297,52.2539062z M34.5654297,51.4492188h1.0390625c0.578125,0,0.8671875-0.3330078,0.8671875-1
			c0-0.6660156-0.2998047-1-0.8984375-1h-1.0078125V51.4492188z"/>
	</g>
</g>
<g>
	<path d="M25.2670898,10.1225586c0.4140625,0,0.75-0.3359375,0.75-0.75v-5.609375c0-0.4140625-0.3359375-0.75-0.75-0.75
		s-0.75,0.3359375-0.75,0.75v5.609375C24.5170898,9.7866211,24.8530273,10.1225586,25.2670898,10.1225586z"/>
	<path d="M25.2670898,35.9042969c-0.4140625,0-0.75,0.3359375-0.75,0.75v5.609375c0,0.4140625,0.3359375,0.75,0.75,0.75
		s0.75-0.3359375,0.75-0.75v-5.609375C26.0170898,36.2402344,25.6811523,35.9042969,25.2670898,35.9042969z"/>
	<path d="M15.7514648,14.0268555c0.1464844,0.1464844,0.3383789,0.2197266,0.5302734,0.2197266
		s0.3837891-0.0732422,0.5302734-0.2197266c0.2929688-0.2929688,0.2929688-0.7675781,0-1.0605469L12.8457031,9
		c-0.2929688-0.2929688-0.7675781-0.2929688-1.0605469,0s-0.2929688,0.7675781,0,1.0605469L15.7514648,14.0268555z"/>
	<path d="M13.0239258,22.9897461c0-0.4140625-0.3359375-0.75-0.75-0.75h-5.609375c-0.4140625,0-0.75,0.3359375-0.75,0.75
		s0.3359375,0.75,0.75,0.75h5.609375C12.6879883,23.7397461,13.0239258,23.4038086,13.0239258,22.9897461z"/>
	<path d="M15.6123047,32.0224609l-3.9663086,3.9658203c-0.2929688,0.2929688-0.2929688,0.7675781,0,1.0605469
		c0.1464844,0.1464844,0.3383789,0.2197266,0.5302734,0.2197266s0.3837891-0.0732422,0.5302734-0.2197266l3.9663086-3.9658203
		c0.2929688-0.2929688,0.2929688-0.7675781,0-1.0605469S15.9052734,31.7294922,15.6123047,32.0224609z"/>
	<path d="M42.3876953,11.2880859c-3.382019,0-6.4241333,1.4509888-8.5623779,3.7528076
		c-1.9621582-1.8565674-4.6037598-3.0026245-7.5182495-3.0026245c-6.0482178,0-10.9512329,4.9030151-10.9512329,10.9512329
		s4.9030151,10.9512329,10.9512329,10.9512329c2.9145508,0,5.5560913-1.1460571,7.5183105-3.0026855
		c2.1381836,2.3015747,5.1803589,3.7523804,8.5623169,3.7523804c6.4521484,0,11.7011719-5.2490234,11.7011719-11.7006836
		C54.0888672,16.5375977,48.8398438,11.2880859,42.3876953,11.2880859z M42.3876953,33.1904297
		c-2.9888916,0-5.6730957-1.2999268-7.5405273-3.3547363c0-0.000061,0.000061-0.0001221,0.0001221-0.0001831
		c-0.2454834,0.3057861-0.520874,0.5840454-0.7977295,0.8606567c-0.0777588,0.0776978-0.144104,0.1660767-0.223999,0.2416992
		c-1.940918-2.0894165-3.1386108-4.878418-3.1386108-7.9484863c0-3.0700073,1.1976929-5.8589478,3.1385498-7.9483643
		c0.000061,0.000061,0.0001831,0.0001831,0.0002441,0.0002441c0.3643188,0.3447266,0.7071533,0.7105713,1.0214844,1.1021729
		c-1.6468506,1.8123169-2.6602783,4.210022-2.6602783,6.8459473c0,2.6359863,1.0134888,5.0337524,2.6604004,6.8460693
		c1.5054932-1.8756714,2.4109497-4.2536621,2.4109497-6.8459473c0-2.5924072-0.9055786-4.9705811-2.4111938-6.8462524
		c1.8674316-2.0550537,4.5516968-3.3551636,7.5405884-3.3551636c5.625,0,10.2011719,4.5766602,10.2011719,10.2016602
		C52.5888672,28.6142578,48.0126953,33.1904297,42.3876953,33.1904297z"/>
</g>
</svg>
