<?xml version="1.0" encoding="utf-8"?>
<!-- Generator: Adobe Illustrator 19.0.0, SVG Export Plug-In . SVG Version: 6.00 Build 0)  -->
<svg version="1.1" id="Layer_1" xmlns="http://www.w3.org/2000/svg" xmlns:xlink="http://www.w3.org/1999/xlink" x="0px" y="0px"
	 viewBox="0 0 60 60" style="enable-background:new 0 0 60 60;" xml:space="preserve">
<style type="text/css">
	.st0{fill:none;}
</style>
<g id="XMLID_1_">
	<rect id="XMLID_586_" x="3" y="3" class="st0" width="54" height="54"/>
	<path id="XMLID_329_" d="M49.0626984,3H10.9372997C6.5717802,3,3,6.5717001,3,10.9371996v38.1254005
		C3,53.4281998,6.5717802,57,10.9372997,57h38.1253967C53.4281998,57,57,53.4281998,57,49.0625992V10.9371996
		C57,6.5717001,53.4281998,3,49.0626984,3z M55.5,49.0625992C55.5,52.6122017,52.6122017,55.5,49.0626984,55.5H10.9372997
		C7.3877602,55.5,4.5,52.6122017,4.5,49.0625992V10.9371996C4.5,7.3877001,7.3877602,4.5,10.9372997,4.5h38.1253967
		C52.6122017,4.5,55.5,7.3877001,55.5,10.9371996V49.0625992z"/>
	<g id="XMLID_2_">
		<g id="XMLID_3_">
			<path id="XMLID_393_" d="M12.1112299,31.7986259c-0.2052002-0.2046013-0.4483995-0.3673-0.7294998-0.4876003
				c-0.2812004-0.1196995-0.5887003-0.1800995-0.9225998-0.1800995H8.2619696v6.4154987h1.1954403v-1.8367996h0.9927206
				c0.3337994,0,0.6426992-0.0597992,0.9269991-0.1800995c0.2844-0.1203003,0.5289001-0.282402,0.7341003-0.4876022
				c0.2052002-0.2051964,0.3661003-0.4484978,0.4832001-0.729599c0.1170998-0.2812004,0.1757002-0.5802994,0.1757002-0.8961983
				c0-0.3166008-0.0586004-0.6138-0.1757002-0.8924026C12.4773302,32.2458267,12.3164301,32.0038261,12.1112299,31.7986259z
				 M11.4782305,33.8774261c-0.0586004,0.1434975-0.1403008,0.2695999-0.2458,0.3775978
				c-0.1055002,0.1088028-0.2316008,0.1937027-0.3783007,0.2548027c-0.1459999,0.0616989-0.3074999,0.0926971-0.4830999,0.0926971
				h-0.91362v-2.3644981h0.91362c0.1756001,0,0.3371,0.0309982,0.4830999,0.092701
				c0.1466999,0.0611,0.2728004,0.1447983,0.3783007,0.2502975c0.1054993,0.1055031,0.1871996,0.2303009,0.2458,0.3738022
				c0.0584993,0.1434975,0.0880995,0.2971992,0.0880995,0.4612999C11.56633,33.5801239,11.5367298,33.7339249,11.4782305,33.8774261
				z"/>
			<path id="XMLID_395_" d="M16.3426304,32.466526c-0.1499004-0.0405006-0.3178005-0.0611992-0.5056-0.0611992
				c-0.6382999,0-1.0777006,0.2547989-1.3183002,0.7643967v-0.7643967h-1.1773005v5.141098h1.1864004v-2.7420006
				c0-0.4451981,0.0894003-0.7661972,0.2681999-0.9623985c0.1781998-0.1963005,0.4406996-0.2939987,0.7861004-0.2939987
				c0.1699991,0,0.3088999,0.0185966,0.4175997,0.0564995c0.1080999,0.0387001,0.2065001,0.086998,0.2946997,0.1453972
				l0.4477997-1.1251984C16.6251297,32.5604248,16.49193,32.5076256,16.3426304,32.466526z"/>
			<path id="XMLID_429_" d="M21.0707302,33.1458244c-0.2431011-0.2341003-0.5256004-0.4174995-0.8479004-0.5499992
				c-0.3223991-0.1332016-0.667799-0.199501-1.0370998-0.199501c-0.3686008,0-0.7161007,0.0662994-1.0410004,0.199501
				c-0.3255005,0.1324997-0.6079998,0.3158989-0.8486004,0.5499992c-0.2398987,0.2349014-0.4291,0.5083008-0.5667,0.8223
				c-0.1376991,0.3133011-0.2066002,0.6504021-0.2066002,1.012001c0,0.3558006,0.0689011,0.6903992,0.2066002,1.0037003
				c0.1375999,0.3139,0.3268013,0.5873985,0.5667,0.8214989c0.2406006,0.2349014,0.5230999,0.4182014,0.8486004,0.5508003
				c0.3248997,0.1331024,0.6723995,0.1994019,1.0410004,0.1994019c0.3693008,0,0.7147007-0.0662994,1.0370998-0.1994019
				c0.3223-0.1325989,0.6047993-0.3158989,0.8479004-0.5508003c0.2432003-0.2341003,0.4337006-0.5075989,0.5713997-0.8214989
				c0.137701-0.3133011,0.206501-0.6478996,0.206501-1.0037003c0-0.361599-0.0688-0.6987-0.206501-1.012001
				C21.5044308,33.6541252,21.3139305,33.3807259,21.0707302,33.1458244z M20.5657291,35.544426
				c-0.0765991,0.1787987-0.1820984,0.3344994-0.3165989,0.4656982c-0.1343994,0.1326027-0.2926006,0.2368011-0.4748001,0.314003
				c-0.1814003,0.0765991-0.3775997,0.1152-0.5886002,0.1152s-0.4085999-0.0386009-0.5932007-0.1152
				c-0.1845989-0.0772018-0.3428993-0.1814003-0.4741001-0.314003c-0.1318989-0.1311989-0.2361984-0.2868996-0.3120995-0.4656982
				c-0.0765991-0.178299-0.1145-0.3668022-0.1145-0.5643005c0-0.2033005,0.0379009-0.3944016,0.1145-0.5732002
				c0.075901-0.178299,0.1802006-0.3339005,0.3120995-0.4658012c0.1312008-0.131897,0.2895012-0.2361984,0.4741001-0.3134003
				c0.1846008-0.0764999,0.3822002-0.115097,0.5932007-0.115097s0.4071999,0.0385971,0.5886002,0.115097
				c0.1821995,0.0772018,0.3404007,0.1815033,0.4748001,0.3134003c0.1345005,0.1319008,0.2399998,0.2875023,0.3165989,0.4658012
				c0.075901,0.1787987,0.1139011,0.3698997,0.1139011,0.5732002C20.6796303,35.1776237,20.6416302,35.366127,20.5657291,35.544426z
				"/>
			<path id="XMLID_430_" d="M24.9161301,37.5555267c0.2985001,0,0.5771999-0.0393028,0.8351002-0.1165009
				c0.2572994-0.0778008,0.4902-0.1865997,0.6987-0.3274002c0.2078991-0.1409988,0.3904991-0.3088989,0.5489006-0.5044022
				c0.1581993-0.1949997,0.2867985-0.4078979,0.3865986-0.6375999l-1.0627995-0.4284973
				c-0.1177998,0.2637978-0.2947006,0.4792976-0.5321007,0.6465988c-0.2374001,0.1679001-0.5230999,0.2516022-0.8569984,0.2516022
				c-0.2168007,0-0.4189014-0.0386009-0.6060009-0.1152c-0.1879005-0.0772018-0.3507004-0.1814003-0.4876995-0.314003
				c-0.1382999-0.1311989-0.2451-0.2868996-0.3211002-0.4656982c-0.0764999-0.178299-0.1145-0.3668022-0.1145-0.5643005
				c0-0.2033005,0.0380001-0.3944016,0.1145-0.5732002c0.0760002-0.178299,0.1828003-0.3339005,0.3211002-0.4658012
				c0.1369991-0.131897,0.2985001-0.2361984,0.483099-0.3134003c0.1847-0.0764999,0.3855-0.115097,0.6023006-0.115097
				c0.3159008,0,0.5956993,0.0784988,0.8388996,0.2353973c0.2432003,0.1570015,0.4232998,0.3674011,0.5403996,0.6312027
				l1.0635014-0.4202003c-0.0998001-0.2302017-0.2284012-0.4400024-0.3866005-0.6304016
				c-0.1583996-0.1898003-0.3430004-0.3539009-0.5540009-0.4916c-0.2103996-0.138298-0.4432983-0.2463989-0.6987-0.3241997
				c-0.2547989-0.077301-0.5255985-0.1165009-0.8125992-0.1165009c-0.375,0-0.7250996,0.0662994-1.0499001,0.199501
				c-0.3255997,0.1324997-0.6079998,0.3158989-0.8486004,0.5499992c-0.2399998,0.2349014-0.4291992,0.5083008-0.5669003,0.8223
				c-0.1376991,0.3133011-0.2064991,0.6504021-0.2064991,1.012001c0,0.3558006,0.0688,0.6903992,0.2064991,1.0037003
				c0.137701,0.3139,0.3269005,0.5859985,0.5669003,0.8176994c0.2406006,0.2316017,0.5230007,0.4150009,0.8486004,0.5507011
				C24.1910305,37.4873238,24.5411301,37.5555267,24.9161301,37.5555267z"/>
			<path id="XMLID_433_" d="M31.8021297,37.1727257c0.4008007-0.2547989,0.712801-0.5900002,0.9354-1.0063019l-0.9752998-0.5621986
				c-0.1229,0.2754021-0.3076,0.4953003-0.5533009,0.6594009c-0.2463989,0.1641006-0.5365982,0.2458-0.8704987,0.2458
				c-0.4214001,0-0.7700996-0.1113014-1.0454006-0.3339005c-0.2761002-0.222599-0.4542999-0.5153999-0.5366001-0.8788986h4.1838017
				v-0.4201012c0-0.3570023-0.0662994-0.6864014-0.1982002-0.9888992c-0.1318016-0.3017006-0.3146019-0.5642014-0.5494995-0.7868004
				c-0.2341022-0.222599-0.5139008-0.3957024-0.8389015-0.5191994c-0.3248997-0.1235008-0.6781006-0.1853027-1.0589008-0.1853027
				c-0.3751984,0-0.7250996,0.068203-1.0499992,0.2033005c-0.3255005,0.1357994-0.6079998,0.3192024-0.8486996,0.5508003
				c-0.2399006,0.2314987-0.4290009,0.5056992-0.5667,0.8216019c-0.137701,0.3163986-0.206501,0.6548996-0.206501,1.0164986
				c0,0.3558006,0.0662003,0.6903,0.198101,1.0042c0.1313,0.3134003,0.3158989,0.5854988,0.553299,0.8171997
				c0.2374001,0.2314987,0.5230999,0.4136009,0.8570004,0.5461998c0.3339005,0.1331024,0.7031994,0.1994019,1.1072006,0.1994019
				C30.9129295,37.5555267,31.400631,37.4281273,31.8021297,37.1727257z M29.36763,33.6792259
				c0.2605991-0.1583023,0.5692997-0.2368011,0.9270992-0.2368011c0.3692017,0,0.6793003,0.0727005,0.9315014,0.2187996
				c0.2516003,0.1459999,0.4221992,0.360302,0.5095997,0.6421013h-2.9176006
				C28.9236298,34.0453262,29.1064301,33.8368263,29.36763,33.6792259z"/>
			<path id="XMLID_434_" d="M36.9207306,34.8939247c-0.1757011-0.108799-0.3706017-0.1955986-0.5842018-0.2598991
				c-0.2141991-0.0643997-0.4264984-0.115799-0.6374969-0.1551018c-0.3867035-0.0784988-0.6794014-0.1525002-0.8789024-0.2220001
				c-0.1987991-0.0700989-0.2985001-0.1858978-0.2985001-0.3479996c0-0.1395988,0.0675011-0.2624969,0.2019997-0.3685989
				c0.1351013-0.1062012,0.3428001-0.1595993,0.6240005-0.1595993c0.2463989,0,0.4626999,0.0502014,0.6505013,0.1505013
				c0.1871986,0.0998001,0.3339005,0.2360992,0.4393997,0.4084969l1.0107994-0.4779968
				c-0.199501-0.328701-0.4704018-0.5879021-0.8131981-0.7791023c-0.3430023-0.1909981-0.7721024-0.2863007-1.2875023-0.2863007
				c-0.3049011,0-0.5816002,0.0405998-0.8304977,0.1216011c-0.2491035,0.0811005-0.4613037,0.1911011-0.6369019,0.3306999
				c-0.1757011,0.1403008-0.3120995,0.3003998-0.4085999,0.4818993c-0.0970993,0.1814995-0.145401,0.3698997-0.145401,0.5655022
				c0,0.2572975,0.0527,0.4710007,0.1583023,0.6408997c0.1054001,0.1703987,0.2430992,0.3099976,0.4129982,0.4193993
				c0.1697998,0.1086998,0.361599,0.1935997,0.575901,0.2554016c0.213501,0.0616989,0.4315987,0.1144981,0.6548996,0.1588974
				c0.1576004,0.0335007,0.3101006,0.0643997,0.4567986,0.0919991c0.1459999,0.0283012,0.2733994,0.0630035,0.382103,0.1049004
				c0.1080971,0.0418015,0.1961975,0.0907021,0.2637978,0.1467018c0.0669022,0.0559006,0.1010017,0.1286011,0.1010017,0.2179985
				c0,0.1622009-0.0734024,0.3017998-0.2200012,0.4188995c-0.1460991,0.1170998-0.3661003,0.175602-0.6587982,0.175602
				c-0.2812004,0-0.5276031-0.0597992-0.7386017-0.1807022c-0.2103996-0.1209984-0.3777008-0.2940979-0.5005989-0.5191994
				l-1.0988007,0.4941025c0.2052002,0.4001999,0.4953995,0.7057991,0.8703995,0.9174004
				c0.3745003,0.2109985,0.8466988,0.3171997,1.4147987,0.3171997c0.3693008,0,0.6851997-0.0502014,0.9489021-0.1512032
				c0.2637978-0.100399,0.4819984-0.2304001,0.655098-0.3898964c0.1723022-0.1589012,0.3003998-0.3320007,0.382103-0.5198021
				c0.0822983-0.1865997,0.1228981-0.3666992,0.1228981-0.5405006c0-0.2566986-0.0541-0.4708977-0.1621017-0.6413994
				C37.2385292,35.1429253,37.0963287,35.0026245,36.9207306,34.8939247z"/>
			<path id="XMLID_435_" d="M41.56073,34.8939247c-0.1755981-0.108799-0.3706017-0.1955986-0.584301-0.2598991
				c-0.2141991-0.0643997-0.4264984-0.115799-0.6375008-0.1551018c-0.3865967-0.0784988-0.6793976-0.1525002-0.8787994-0.2220001
				c-0.1988983-0.0700989-0.2985992-0.1858978-0.2985992-0.3479996c0-0.1395988,0.0675011-0.2624969,0.2020988-0.3685989
				c0.1350021-0.1062012,0.3429031-0.1595993,0.6240997-0.1595993c0.2463036,0,0.4625015,0.0502014,0.6503029,0.1505013
				c0.1872978,0.0998001,0.3339996,0.2360992,0.4394989,0.4084969l1.0107002-0.4779968
				c-0.199501-0.328701-0.4702988-0.5879021-0.8132019-0.7791023c-0.3428993-0.1909981-0.7719994-0.2863007-1.2873001-0.2863007
				c-0.3049965,0-0.5816994,0.0405998-0.8306999,0.1216011c-0.2488976,0.0811005-0.4612999,0.1911011-0.636898,0.3306999
				c-0.1757011,0.1403008-0.3120003,0.3003998-0.4085007,0.4818993c-0.0971985,0.1814995-0.145401,0.3698997-0.145401,0.5655022
				c0,0.2572975,0.0527,0.4710007,0.1582031,0.6408997c0.1055984,0.1703987,0.2431984,0.3099976,0.4130974,0.4193993
				c0.1697998,0.1086998,0.3614998,0.1935997,0.5758018,0.2554016c0.213501,0.0616989,0.4316978,0.1144981,0.6548996,0.1588974
				c0.1576004,0.0335007,0.3101997,0.0643997,0.4567986,0.0919991c0.1461029,0.0283012,0.2735023,0.0630035,0.3822021,0.1049004
				c0.1080971,0.0418015,0.1961975,0.0907021,0.2637978,0.1467018c0.0669022,0.0559006,0.1010017,0.1286011,0.1010017,0.2179985
				c0,0.1622009-0.0734024,0.3017998-0.2201004,0.4188995c-0.1459999,0.1170998-0.3661003,0.175602-0.658802,0.175602
				c-0.2810974,0-0.5275993-0.0597992-0.7385979-0.1807022c-0.2103996-0.1209984-0.3776016-0.2940979-0.5004997-0.5191994
				l-1.0988998,0.4941025c0.2052994,0.4001999,0.4953995,0.7057991,0.8704987,0.9174004
				c0.3744011,0.2109985,0.8466988,0.3171997,1.4146996,0.3171997c0.3693008,0,0.6853027-0.0502014,0.9491005-0.1512032
				c0.2638016-0.100399,0.4818001-0.2304001,0.6548996-0.3898964c0.1724014-0.1589012,0.3003998-0.3320007,0.3820992-0.5198021
				c0.0824013-0.1865997,0.1229019-0.3666992,0.1229019-0.5405006c0-0.2566986-0.0540009-0.4708977-0.1621017-0.6413994
				C41.8785286,35.1429253,41.7363281,35.0026245,41.56073,34.8939247z"/>
			<path id="XMLID_438_" d="M47.0401306,33.1458244c-0.2430992-0.2341003-0.5255013-0.4174995-0.8479004-0.5499992
				c-0.3223-0.1332016-0.6677017-0.199501-1.0371017-0.199501c-0.3685989,0-0.7159996,0.0662994-1.0410004,0.199501
				c-0.3254967,0.1324997-0.6079979,0.3158989-0.8484993,0.5499992c-0.2399979,0.2349014-0.4291992,0.5083008-0.5667992,0.8223
				c-0.1376991,0.3133011-0.2066002,0.6504021-0.2066002,1.012001c0,0.3558006,0.0689011,0.6903992,0.2066002,1.0037003
				c0.1375999,0.3139,0.3268013,0.5873985,0.5667992,0.8214989c0.2405014,0.2349014,0.5230026,0.4182014,0.8484993,0.5508003
				c0.3250008,0.1331024,0.6724014,0.1994019,1.0410004,0.1994019c0.3694,0,0.7148018-0.0662994,1.0371017-0.1994019
				c0.3223991-0.1325989,0.6048012-0.3158989,0.8479004-0.5508003c0.2432976-0.2341003,0.4337997-0.5075989,0.5713005-0.8214989
				c0.1376991-0.3133011,0.2066002-0.6478996,0.2066002-1.0037003c0-0.361599-0.0689011-0.6987-0.2066002-1.012001
				C47.4739304,33.6541252,47.2834282,33.3807259,47.0401306,33.1458244z M46.5351295,35.544426
				c-0.0765991,0.1787987-0.1819992,0.3344994-0.3164978,0.4656982c-0.1345024,0.1326027-0.2928009,0.2368011-0.4748001,0.314003
				c-0.1814003,0.0765991-0.3777008,0.1152-0.5887032,0.1152c-0.2109985,0-0.4084969-0.0386009-0.5931969-0.1152
				c-0.1846008-0.0772018-0.3429031-0.1814003-0.474102-0.314003c-0.1319008-0.1311989-0.2360992-0.2868996-0.3120995-0.4656982
				c-0.0764999-0.178299-0.114502-0.3668022-0.114502-0.5643005c0-0.2033005,0.038002-0.3944016,0.114502-0.5732002
				c0.0760002-0.178299,0.1801987-0.3339005,0.3120995-0.4658012c0.1311989-0.131897,0.2895012-0.2361984,0.474102-0.3134003
				c0.1847-0.0764999,0.3821983-0.115097,0.5931969-0.115097c0.2110023,0,0.4073029,0.0385971,0.5887032,0.115097
				c0.1819992,0.0772018,0.3402977,0.1815033,0.4748001,0.3134003c0.1344986,0.1319008,0.2398987,0.2875023,0.3164978,0.4658012
				c0.0760002,0.1787987,0.1138992,0.3698997,0.1138992,0.5732002C46.6490288,35.1776237,46.6111298,35.366127,46.5351295,35.544426
				z"/>
			<path id="XMLID_439_" d="M50.8328285,32.4053268c-0.6381989,0-1.0775986,0.2547989-1.3181992,0.7643967v-0.7643967h-1.1773987
				v5.141098h1.1863976v-2.7420006c0-0.4451981,0.0894012-0.7661972,0.2683029-0.9623985
				c0.1781998-0.1963005,0.4407005-0.2939987,0.7860985-0.2939987c0.169899,0,0.3087997,0.0185966,0.4175987,0.0564995
				c0.1081009,0.0387001,0.206501,0.086998,0.2946014,0.1453972l0.4477997-1.1251984
				c-0.1170006-0.0643005-0.2503014-0.1170998-0.399498-0.1581993
				C51.1886292,32.4260254,51.0207291,32.4053268,50.8328285,32.4053268z"/>
		</g>
		<g id="XMLID_4_">
			<path id="XMLID_5_" d="M23.9265137,29.2540455c-0.3540039,0-0.6801758-0.0522461-0.9780273-0.15625
				c-0.2983398-0.1044922-0.5576172-0.2578125-0.777832-0.4604492c-0.2207031-0.2021484-0.3916016-0.4536133-0.5126953-0.7543945
				s-0.1816406-0.6469727-0.1816406-1.0400391v-4.3984375h1.2670898v4.4609375c0,0.1655273,0.0292969,0.3198242,0.0883789,0.4633789
				c0.059082,0.144043,0.1411133,0.2680664,0.2470703,0.3720703c0.1054688,0.1040039,0.2294922,0.1865234,0.3725586,0.2475586
				c0.1425781,0.0615234,0.2978516,0.0917969,0.4658203,0.0917969c0.1674805,0,0.3227539-0.0302734,0.4658203-0.0917969
				c0.1425781-0.0610352,0.2685547-0.1435547,0.3769531-0.2475586c0.1088867-0.1040039,0.1943359-0.2280273,0.2563477-0.3720703
				c0.0620117-0.1435547,0.0932617-0.2978516,0.0932617-0.4633789v-4.4609375h1.2666016v4.3984375
				c0,0.3930664-0.0620117,0.7392578-0.1860352,1.0400391c-0.1245117,0.3007813-0.2949219,0.5522461-0.5126953,0.7543945
				c-0.2172852,0.2026367-0.4750977,0.355957-0.7729492,0.4604492
				C24.6062012,29.2017994,24.2805176,29.2540455,23.9265137,29.2540455z"/>
			<path id="XMLID_7_" d="M31.0246582,26.4405689h-2.6083984v2.8041992h-1.2670898v-6.800293h1.2670898v2.7851563h2.6083984
				v-2.7851563h1.2666016v6.800293h-1.2666016V26.4405689z"/>
			<path id="XMLID_9_" d="M33.0739746,22.4444752h1.8540039c0.5712891,0,1.0805664,0.0869141,1.527832,0.2607422
				c0.4467773,0.1738281,0.8242188,0.4130859,1.1318359,0.7172852c0.3071289,0.3041992,0.5400391,0.6630859,0.6987305,1.0761719
				c0.1582031,0.4130859,0.2373047,0.8613281,0.2373047,1.3457031c0,0.4848633-0.0869141,0.9350586-0.2607422,1.3510742
				s-0.4179688,0.7749023-0.7314453,1.0756836c-0.3134766,0.3012695-0.6879883,0.5390625-1.1225586,0.7128906
				s-0.909668,0.2607422-1.425293,0.2607422h-1.909668V22.4444752z M34.3410645,23.6183033V28.07094h0.4936523
				c0.3725586,0,0.7080078-0.0556641,1.0058594-0.1674805c0.2983398-0.1118164,0.5512695-0.2685547,0.7592773-0.4707031
				c0.2080078-0.2016602,0.3696289-0.4375,0.484375-0.7080078c0.1152344-0.2700195,0.1723633-0.5634766,0.1723633-0.8803711
				c0-0.3291016-0.0498047-0.628418-0.1489258-0.8989258c-0.0991211-0.2700195-0.2514648-0.5043945-0.456543-0.703125
				c-0.2045898-0.1987305-0.4624023-0.3525391-0.7729492-0.4609375c-0.3105469-0.1088867-0.6772461-0.1630859-1.0991211-0.1630859
				H34.3410645z"/>
		</g>
	</g>
</g>
</svg>
