<?xml version="1.0" encoding="utf-8"?>
<!-- Generator: Adobe Illustrator 19.2.1, SVG Export Plug-In . SVG Version: 6.00 Build 0)  -->
<svg version="1.1" id="Layer_1" xmlns="http://www.w3.org/2000/svg" xmlns:xlink="http://www.w3.org/1999/xlink" x="0px" y="0px"
	 viewBox="0 0 60 60" style="enable-background:new 0 0 60 60;" xml:space="preserve">
<g>
	<path d="M25.8896008,23.4839001c-0.4140015,0-0.75,0.3358994-0.75,0.75v11.5220013c0,0.4139977,0.3359985,0.75,0.75,0.75
		c0.4140987,0,0.75-0.3360023,0.75-0.75V24.2339001C26.6396008,23.8197994,26.3036995,23.4839001,25.8896008,23.4839001z"/>
	<path d="M34.0928001,23.4839001c-0.4141006,0-0.75,0.3358994-0.75,0.75v11.5220013c0,0.4139977,0.3358994,0.75,0.75,0.75
		c0.4140015,0,0.75-0.3360023,0.75-0.75V24.2339001C34.8428001,23.8197994,34.5068016,23.4839001,34.0928001,23.4839001z"/>
	<path d="M29.9990005,3.09326h-0.0004997c-0.8281002,0-1.4995003,0.6713901-1.5,1.49951l-0.0151005,50.80373
		c-0.0004997,0.8281021,0.6709003,1.5,1.4995003,1.5h0.0004997c0.8281002,0,1.5-0.6708984,1.5-1.5L31.4979992,4.59375
		C31.4990005,3.7651401,30.8276005,3.09375,29.9990005,3.09326z"/>
	<path d="M23.7196999,29.9354992c-0.0002003-0.0772991-0.0240002-0.1493988-0.046999-0.2209988
		c-0.0067005-0.0207005-0.0053005-0.0438004-0.0136013-0.0636997c-0.0165997-0.0426006-0.0499992-0.0782013-0.0746994-0.1177998
		c-0.0270004-0.0431004-0.0449009-0.0901012-0.081501-0.1282005l-2.0926991-2.1781998
		c-0.2886009-0.2998009-0.7618008-0.3086014-1.0606003-0.0215015c-0.2987995,0.2871017-0.3080997,0.7617016-0.0214996,1.0605011
		l0.8901005,0.9265003l-16.3671303,0.042799c-0.4140601,0.0009003-0.7490201,0.3379002-0.7480397,0.7518997
		c0.0009699,0.4136009,0.3364196,0.7481003,0.75,0.7481003c0.0004897,0,0.0014596,0,0.0019498,0l16.3563194-0.042799
		l-0.8831997,0.919199c-0.2866001,0.2989006-0.2772999,0.7735004,0.0214996,1.0606022
		c0.1455002,0.1395988,0.3325005,0.2089996,0.5195007,0.2089996c0.1968002,0,0.3935986-0.0772018,0.5410995-0.2305031
		l2.0926991-2.1781979c0.0434017-0.0452995,0.0667-0.1000996,0.0966015-0.1520996
		c0.0151997-0.0250015,0.0245991-0.0531006,0.0377998-0.0792999c0.0047989-0.0104008,0.0101986-0.0200005,0.0145988-0.0306015
		C23.6903992,30.1250992,23.7199993,30.0356007,23.7196999,29.9354992z"/>
	<path d="M55.0811005,29.1420994c-0.0009995,0-0.0009995,0-0.0019989,0l-16.3558006,0.0428009l0.8830986-0.9193001
		c0.2872009-0.2987995,0.277401-0.7733994-0.0214005-1.0605011c-0.2989006-0.2865982-0.7734985-0.2782993-1.0606003,0.0215015
		l-2.0928001,2.1781998c-0.0443001,0.0460987-0.0683975,0.1021004-0.0986977,0.1553001
		c-0.0144997,0.0241985-0.0235023,0.0513992-0.0361023,0.0767002c-0.0046997,0.0101986-0.0098991,0.0195999-0.0140991,0.0298996
		c-0.0384979,0.0851994-0.0681,0.1746998-0.0678978,0.2747002c0.0002975,0.0986004,0.0219994,0.1917,0.056797,0.2777996
		c0.0003014,0.0004997,0.000103,0.0011997,0.0003014,0.0016994c0.0187988,0.0492001,0.0568008,0.0907001,0.0863991,0.1359997
		c0.0251999,0.0383015,0.0404015,0.0810013,0.0732994,0.1153011l2.0928001,2.1781979
		c0.1475029,0.1533012,0.3437996,0.2305031,0.5410004,0.2305031c0.1865997,0,0.3740997-0.0694008,0.5195999-0.2089996
		c0.2988014-0.2871017,0.3086014-0.7617016,0.0214005-1.0606022l-0.8899994-0.9263992l16.3666-0.0428009
		c0.4141006-0.0009995,0.7490005-0.3379002,0.7481003-0.7519989C55.830101,29.4766006,55.4940987,29.1420994,55.0811005,29.1420994z
		"/>
</g>
</svg>
